<svg width="24" height="24" viewBox="0 0 24 24" fill="none" xmlns="http://www.w3.org/2000/svg">
<path d="M13.3333 6.66667V1.33334C13.3333 0.95556 13.4613 0.638671 13.7173 0.382671C13.9733 0.126671 14.2898 -0.000884275 14.6667 4.61361e-06H22.6667C23.0444 4.61361e-06 23.3613 0.128005 23.6173 0.384005C23.8733 0.640004 24.0009 0.956449 24 1.33334V6.66667C24 7.04445 23.872 7.36134 23.616 7.61734C23.36 7.87333 23.0436 8.00089 22.6667 8H14.6667C14.2889 8 13.972 7.872 13.716 7.616C13.46 7.36 13.3324 7.04356 13.3333 6.66667ZM4.61361e-06 12V1.33334C4.61361e-06 0.95556 0.128005 0.638671 0.384005 0.382671C0.640004 0.126671 0.956449 -0.000884275 1.33334 4.61361e-06H9.33333C9.71111 4.61361e-06 10.028 0.128005 10.284 0.384005C10.54 0.640004 10.6676 0.956449 10.6667 1.33334V12C10.6667 12.3778 10.5387 12.6947 10.2827 12.9507C10.0267 13.2067 9.71022 13.3342 9.33333 13.3333H1.33334C0.95556 13.3333 0.638671 13.2053 0.382671 12.9493C0.126671 12.6933 -0.000884275 12.3769 4.61361e-06 12ZM13.3333 22.6667V12C13.3333 11.6222 13.4613 11.3053 13.7173 11.0493C13.9733 10.7933 14.2898 10.6658 14.6667 10.6667H22.6667C23.0444 10.6667 23.3613 10.7947 23.6173 11.0507C23.8733 11.3067 24.0009 11.6231 24 12V22.6667C24 23.0444 23.872 23.3613 23.616 23.6173C23.36 23.8733 23.0436 24.0009 22.6667 24H14.6667C14.2889 24 13.972 23.872 13.716 23.616C13.46 23.36 13.3324 23.0436 13.3333 22.6667ZM4.61361e-06 22.6667V17.3333C4.61361e-06 16.9556 0.128005 16.6387 0.384005 16.3827C0.640004 16.1267 0.956449 15.9991 1.33334 16H9.33333C9.71111 16 10.028 16.128 10.284 16.384C10.54 16.64 10.6676 16.9564 10.6667 17.3333V22.6667C10.6667 23.0444 10.5387 23.3613 10.2827 23.6173C10.0267 23.8733 9.71022 24.0009 9.33333 24H1.33334C0.95556 24 0.638671 23.872 0.382671 23.616C0.126671 23.36 -0.000884275 23.0436 4.61361e-06 22.6667Z" fill="#53565A"/>
</svg>
