<svg width="102" height="58" viewBox="0 0 102 58" fill="none" xmlns="http://www.w3.org/2000/svg">
<path d="M5.71703 34.0094V47.7343C5.00824 47.9044 1.05553 47.936 0.0993676 47.7939C-0.0480039 46.9395 -0.0269508 26.2391 0.132702 25.5215H8.34691C8.77849 27.1479 8.92411 28.8532 9.21534 30.5286C9.50132 32.1778 9.73816 33.8357 10.0592 35.4936C10.4838 34.4568 10.4505 33.341 10.6557 32.2708C10.8715 31.1567 10.9978 30.0269 11.154 28.9023C11.3066 27.8075 11.4505 26.7128 11.6119 25.5162C12.5224 25.432 13.4207 25.4882 14.3154 25.4794C15.2506 25.4689 16.1874 25.4777 17.1225 25.4777H19.9314C20.0015 27.9865 19.9542 30.4602 19.9629 32.9322C19.9717 35.3884 19.9647 37.8446 19.9647 40.3008C19.9647 42.757 19.9647 45.2658 19.9647 47.7343C19.2664 47.9132 15.3611 47.9378 14.3558 47.7641V33.6217C14.3067 33.6199 14.2558 33.6164 14.2067 33.6147C13.5067 38.327 12.8049 43.0394 12.0996 47.7834C11.4242 47.9641 10.754 47.8536 10.0926 47.8746C9.45395 47.8939 8.81358 47.8781 8.09602 47.8781C7.34513 43.2166 6.60301 38.6007 5.86089 33.9866C5.81177 33.9954 5.76264 34.0041 5.71352 34.0129L5.71703 34.0094Z" fill="#53565A"/>
<path d="M52.8443 22.346V0.0771237C53.4303 0.0630883 53.9742 0.0385264 54.5198 0.036772C55.9812 0.0315087 57.4497 -0.0562124 58.9023 0.0595795C60.6971 0.201688 62.5252 0.0139645 64.2866 0.536782C65.106 0.780647 65.8761 1.09469 66.4972 1.71926C67.2306 2.45787 67.5955 3.33859 67.6709 4.3737C67.9902 8.72116 67.7727 13.0739 67.799 17.4248C67.8043 18.2319 67.6323 19.0459 67.4797 19.8442C67.3218 20.6635 66.7972 21.239 66.0832 21.66C65.2288 22.1635 64.2814 22.3811 63.3235 22.3951C59.9058 22.4425 56.4865 22.425 53.0671 22.4302C53.0145 22.4302 52.9618 22.3916 52.8461 22.346H52.8443ZM59.3076 3.80527C59.276 4.10001 59.2497 4.24037 59.2497 4.38248C59.262 9.08433 59.2778 13.7862 59.2936 18.488C59.2936 18.5126 59.3181 18.5389 59.3357 18.5617C59.355 18.5845 59.3795 18.6003 59.4444 18.6582C59.5725 18.6494 59.7427 18.6442 59.9129 18.6266C60.8462 18.5284 61.062 18.3424 61.248 17.4371C61.3111 17.1248 61.3673 16.8038 61.3673 16.4862C61.3761 12.8634 61.3778 9.24047 61.3655 5.61759C61.3655 5.27372 61.3059 4.91231 61.1813 4.59651C61.0953 4.37721 60.8778 4.13159 60.6638 4.05791C60.2638 3.91931 59.8216 3.89475 59.3076 3.80703V3.80527Z" fill="#53565A"/>
<path d="M1.25904 0.0350138C1.538 0.0350138 1.76607 0.0350138 1.99239 0.0350138C2.8696 0.0350138 3.74682 0.019224 4.62227 0.0385226C6.63459 0.0823832 8.65043 0.106945 10.661 0.21221C11.8242 0.271861 12.9821 0.482391 14.0225 1.06837C15.2558 1.76312 15.9523 2.84033 16.0629 4.23861C16.398 8.49659 16.1927 12.7633 16.2208 17.0266C16.226 17.7529 16.1453 18.4845 16.0471 19.2056C15.8348 20.7705 14.612 21.9811 12.9716 22.2285C12.1961 22.346 11.4066 22.4197 10.6224 22.4267C7.67146 22.4495 4.71877 22.4372 1.76783 22.4355C1.62396 22.4355 1.4801 22.4232 1.3415 22.4162C1.16957 21.732 1.09588 2.40524 1.2608 0.0350138H1.25904ZM7.75918 3.81755C7.59251 4.91231 7.6276 17.9213 7.78725 18.595C8.33463 18.6687 8.86797 18.6477 9.38202 18.2284C9.71185 17.5459 9.78554 16.7669 9.78729 15.9774C9.78905 12.6458 9.79431 9.31415 9.78203 5.9825C9.78203 5.54916 9.69957 5.11231 9.62764 4.68248C9.56974 4.3351 9.33465 4.10176 8.99955 4.02282C8.61007 3.93159 8.20831 3.88948 7.76093 3.81755H7.75918Z" fill="#53565A"/>
<path d="M35.8247 0.0771094H41.2037C42.3774 3.34209 43.5494 6.5983 44.7213 9.8545C44.9178 8.79132 44.8775 7.73692 44.8845 6.68426C44.8933 5.60354 44.8845 4.52106 44.8845 3.43858C44.8845 2.36137 44.8845 1.28415 44.8845 0.236762C45.6371 -0.015875 49.3828 -0.0351736 50.2144 0.198164V22.4074C49.2828 22.4741 48.3565 22.4284 47.4319 22.4372C46.5266 22.446 45.6213 22.4372 44.6126 22.4372C43.5336 19.2003 42.4511 15.9564 41.3686 12.7107C41.316 12.7195 41.2634 12.7282 41.2107 12.737V22.2776C40.5423 22.4706 37.4721 22.5267 35.9317 22.3934C35.9054 22.3688 35.8825 22.3512 35.8633 22.3302C35.844 22.3091 35.8141 22.2846 35.8141 22.2618C35.8018 15.0704 35.7931 7.88078 35.7843 0.689403C35.7843 0.517469 35.8054 0.345536 35.8229 0.0753549L35.8247 0.0771094Z" fill="#53565A"/>
<path d="M18.798 0.071844H25.2016C25.2016 0.399921 25.2016 0.712208 25.2016 1.0245C25.2016 6.46145 25.2051 11.8966 25.1999 17.3336C25.1999 17.8933 25.2192 18.4406 25.542 19.0284C25.7069 19.0617 25.9245 19.1407 26.1455 19.1459C26.7525 19.16 26.9455 18.9985 26.9964 18.4056C27.0613 17.6512 27.128 16.895 27.1297 16.1388C27.142 11.1124 27.1368 6.08425 27.1368 1.05783C27.1368 0.745542 27.1368 0.433255 27.1368 0.140266C28.3526 -0.0492111 32.8843 0.00342153 33.5457 0.213952C33.5597 0.420974 33.5895 0.649049 33.5895 0.875369C33.593 5.84389 33.6018 10.8124 33.586 15.7809C33.5825 16.6546 33.5386 17.5371 33.4053 18.3985C33.1772 19.867 32.3158 20.9477 31.1035 21.7653C30.0351 22.4881 28.814 22.7969 27.5631 22.9092C25.6227 23.0828 23.7156 22.8706 21.9156 22.053C20.4875 21.4039 19.4436 20.381 19.0454 18.8354C18.8664 18.1389 18.784 17.3985 18.7805 16.6757C18.7541 11.2984 18.7594 5.91933 18.7559 0.542029C18.7559 0.401675 18.7787 0.263076 18.7962 0.071844H18.798Z" fill="#53565A"/>
<path d="M77.4027 25.5197H82.6396C83.8853 28.6672 84.9257 31.9357 86.1941 35.2743C86.4099 34.5322 86.2818 33.9076 86.3046 33.2971C86.3274 32.655 86.3117 32.0111 86.3117 31.369C86.3117 30.7251 86.3117 30.083 86.3117 29.4391C86.3117 28.7952 86.3117 28.1531 86.3117 27.5092C86.3117 26.8724 86.3117 26.2355 86.3117 25.6215C87.031 25.4478 90.5907 25.418 91.6574 25.5636V47.8272H86.0695C84.9625 44.6149 83.9432 41.3551 82.6747 38.1656C82.6747 41.3551 82.6747 44.5464 82.6747 47.736C82.0659 47.9149 79.2519 47.9676 77.4694 47.8342C77.4483 47.8132 77.4255 47.7939 77.408 47.7711C77.3904 47.75 77.3641 47.7237 77.3641 47.7009C77.3518 40.4534 77.343 33.2059 77.336 25.9583C77.336 25.8443 77.3711 25.7303 77.4062 25.5215L77.4027 25.5197Z" fill="#53565A"/>
<path d="M89.3644 12.3756V22.3951H83.1028C83.0853 22.3793 83.0642 22.36 83.0449 22.339C83.0256 22.3179 82.9958 22.2951 82.9941 22.2706C82.9783 22.1249 82.9607 21.9811 82.9607 21.8355C82.966 14.6458 82.9712 7.45447 82.9818 0.264847C82.9818 0.215724 83.0291 0.164845 83.0976 0.0367726C83.2537 0.0367726 83.452 0.0367726 83.6485 0.0367726C84.3502 0.0367726 85.052 0.0244916 85.7538 0.038527C87.9135 0.0858964 90.0749 0.106949 92.2311 0.212215C93.3013 0.264847 94.3715 0.417482 95.3171 1.04206C96.1101 1.56663 96.6364 2.27366 96.9417 3.15087C97.1838 3.84036 97.3558 4.54915 97.3224 5.29127C97.2768 6.30883 97.2856 7.33166 97.1715 8.34221C97.0066 9.80188 96.1136 10.4054 94.6171 10.658C94.4522 10.6861 94.2873 10.7019 93.9592 10.7458C94.5925 11.0002 95.0908 11.1616 95.554 11.3949C96.6557 11.9475 97.3031 12.8177 97.3084 14.095C97.3189 16.7248 97.3329 19.3565 97.3435 21.9863C97.3435 22.0986 97.3172 22.2109 97.3031 22.3144C96.6364 22.4741 93.2065 22.5214 91.4223 22.3934C91.4135 22.1267 91.396 21.846 91.396 21.567C91.3925 19.2863 91.403 17.0073 91.3855 14.7265C91.382 14.2353 91.2749 13.7458 91.2328 13.2546C91.1855 12.7072 90.796 12.5247 90.3486 12.4353C90.0696 12.3791 89.7767 12.3984 89.3679 12.3774L89.3644 12.3756ZM89.5521 3.88247C89.3486 4.47721 89.3205 8.07378 89.5152 8.86151C91.1574 8.94222 91.3574 8.34221 91.3872 7.25446C91.4013 6.75972 91.3942 6.26322 91.3907 5.76847C91.3819 4.29125 91.1205 4.00878 89.6381 3.86668C89.61 3.86317 89.5802 3.8772 89.5521 3.88247Z" fill="#53565A"/>
<path d="M76.7395 13.0932V17.9968C77.5396 18.1319 78.3238 18.0477 79.101 18.0617C79.8589 18.0775 80.6168 18.0652 81.3624 18.0652C81.5291 18.7407 81.5519 21.4284 81.4028 22.3934H70.3605V0.0823975H80.8782C81.0291 0.761359 81.0519 3.47896 80.908 4.52284H76.7992V8.7545H80.6396C80.8326 9.41417 80.8642 12.0177 80.701 13.0265C80.0589 13.1721 79.3887 13.0721 78.7273 13.0897C78.0887 13.1072 77.4483 13.0932 76.7378 13.0932H76.7395Z" fill="#53565A"/>
<path d="M31.4421 25.518H42.3213C42.4248 26.2706 42.3599 26.997 42.3722 27.7163C42.3844 28.4163 42.3739 29.1163 42.3739 29.89C41.609 30.0374 40.8546 29.9356 40.1107 29.9532C39.3879 29.9707 38.6633 29.9567 37.9615 29.9567C37.8036 30.6953 37.7844 33.2146 37.923 34.1919C39.1774 34.3059 40.4546 34.1813 41.7178 34.2568C41.8932 34.9024 41.916 37.5516 41.7423 38.5165H37.8598C37.8001 39.6218 37.844 40.6358 37.8352 41.6481C37.8265 42.671 37.8317 43.6938 37.8317 44.7166C37.8317 45.7342 37.8317 46.7518 37.8317 47.8202H31.4947C31.3544 47.1605 31.2983 27.1373 31.4369 25.5162L31.4421 25.518Z" fill="#53565A"/>
<path d="M54.2812 29.962H49.9232C49.7583 30.6918 49.7425 33.241 49.8916 34.2006C51.1408 34.2989 52.418 34.1849 53.6759 34.2568C53.8443 34.9129 53.8742 37.4691 53.725 38.4884H49.8986C49.6881 39.3025 49.8197 40.0902 49.7969 40.8657C49.7741 41.6254 49.7916 42.385 49.7916 43.1447C49.7916 43.9342 49.7916 44.7219 49.7916 45.5114C49.7916 46.264 49.7916 47.0184 49.7916 47.8237H43.395V25.6163C44.1529 25.4215 51.3776 25.3741 54.2829 25.5391V29.9637L54.2812 29.962Z" fill="#53565A"/>
<path d="M62.755 43.5079H66.7095V47.7413C66.106 47.9115 58.0409 47.9764 56.4268 47.822C56.2795 47.1851 56.2514 26.5005 56.411 25.5127C58.4813 25.4338 60.569 25.497 62.755 25.4706C62.755 28.5198 62.755 31.4918 62.755 34.4621C62.755 37.4323 62.755 40.4095 62.755 43.5061V43.5079Z" fill="#53565A"/>
<path d="M74.6377 47.843H68.2902V25.5268C70.4148 25.4215 72.5026 25.5092 74.6377 25.4706V47.843Z" fill="#53565A"/>
<path d="M23.0262 47.7886V25.6689C23.6735 25.4355 27.5999 25.3636 29.3175 25.5391C29.4719 26.1829 29.5368 46.1921 29.3894 47.7448C28.7719 47.9079 24.0192 47.943 23.0279 47.7886H23.0262Z" fill="#53565A"/>
<path d="M93.4943 34.4901V32.4638C94.6381 32.0813 95.7592 31.7058 96.8785 31.3322C96.8733 31.2883 96.868 31.2444 96.8628 31.2006H93.5083V29.197H101.665C101.98 29.8128 101.789 30.4549 101.833 31.155C100.689 31.5708 99.5593 31.9795 98.2382 32.4602C98.961 32.7006 99.5032 32.5778 100.031 32.6006C100.552 32.6217 101.075 32.6059 101.679 32.6059C101.726 33.255 101.77 33.8462 101.819 34.4919H93.4943V34.4901Z" fill="#53565A"/>
<path d="M98.261 41.7183V39.3235H100.403C100.489 39.1814 100.545 39.1306 100.545 39.0832C100.542 38.9428 100.514 38.8042 100.486 38.6007C100.205 38.5393 99.9242 38.4218 99.6488 38.4305C98.0259 38.4726 96.3908 38.2709 94.7294 38.5779C94.7171 38.8183 94.7066 39.0042 94.6978 39.1674C95.3575 39.5902 96.0557 39.2095 96.7259 39.3955V41.699C96.1347 41.699 95.5803 41.7604 95.0452 41.685C94.1259 41.5569 93.6013 40.892 93.396 40.0657C93.1855 39.22 93.1802 38.3288 93.4785 37.4779C93.768 36.6498 94.3557 36.1708 95.2399 36.1568C96.8154 36.1305 98.3926 36.1305 99.9681 36.1428C100.705 36.148 101.258 36.5375 101.573 37.1761C102.18 38.4077 102.133 39.6657 101.473 40.8587C101.18 41.3885 100.654 41.6885 100.028 41.7131C99.4751 41.7341 98.9207 41.7183 98.2628 41.7183H98.261Z" fill="#53565A"/>
<path d="M94.0381 50.7361V49.2606C94.4013 48.9308 94.9153 48.6518 95.0118 47.9693C94.7136 47.9167 94.4188 47.8658 94.0311 47.7974C94.0241 47.1272 94.0153 46.4377 94.0118 45.7482C94.0083 45.05 94.0118 44.3535 94.0118 43.5605C94.7136 43.5517 95.3732 43.5377 96.0329 43.5342C96.7013 43.5289 97.3698 43.5342 98.0277 43.5342C98.1821 44.1394 98.2172 45.6184 98.1049 46.3307C98.0733 46.5325 98.0382 46.7325 98.0189 46.936C97.9031 48.1044 97.3698 49.0431 96.4277 49.7308C95.7259 50.2448 94.9645 50.6466 94.0381 50.7378V50.7361Z" fill="#53565A"/>
<path d="M93.489 27.6988V25.5742C94.1522 25.3899 98.9961 25.3268 101.756 25.4706V27.7251C100.894 27.8812 94.2627 27.8672 93.489 27.7005V27.6988Z" fill="#53565A"/>
<path d="M62.8235 55.3958C62.4077 54.9046 62.0199 54.4449 61.5655 53.9063C61.2708 54.5133 61.5357 55.0239 61.4919 55.5169C61.4462 56.0327 61.4533 56.552 61.4375 57.1081C61.2375 57.1204 61.0989 57.1309 60.9059 57.1432V52.8817C61.0497 52.8624 61.2094 52.8396 61.3796 52.8151C61.8603 53.387 62.3287 53.9414 62.8638 54.5783C63.1708 54.2063 63.4375 53.8396 63.7516 53.5203C64.034 53.2344 64.1884 52.7133 64.813 52.8712V57.1029C64.6814 57.1116 64.5533 57.1187 64.3498 57.1327V53.873C63.6358 54.2361 63.4428 54.9607 62.8235 55.3958Z" fill="#53565A"/>
<path d="M56.104 55.0168C56.1988 56.3011 54.9443 57.2151 53.7654 57.173C52.4355 57.1274 51.5513 56.2906 51.5215 55.0081C51.4934 53.7782 52.3794 52.7326 53.8706 52.7782C55.2619 52.8203 56.1128 53.6449 56.1058 55.0168H56.104ZM53.7759 56.6713C54.7005 56.6906 55.5409 55.9169 55.5724 55.0168C55.604 54.1098 54.8163 53.3203 53.8566 53.2975C52.8882 53.2747 52.1074 53.9975 52.0776 54.9449C52.0478 55.8695 52.818 56.652 53.7759 56.673V56.6713Z" fill="#53565A"/>
<path d="M85.2748 52.8799C85.6853 52.7484 85.852 52.9764 86.0222 53.1712C86.6538 53.894 87.2766 54.6238 87.9082 55.3484C88.1275 55.6011 88.3591 55.8432 88.7328 56.0151V52.8694C88.9082 52.8554 89.0152 52.8449 89.1801 52.8326V57.0765C88.8363 57.2432 88.6626 57.052 88.4854 56.8449C87.8591 56.1169 87.2292 55.3923 86.5994 54.6659C86.3748 54.408 86.1467 54.1537 85.752 53.9572C85.7432 55.0081 85.7345 56.0572 85.7257 57.1397C85.5239 57.1239 85.4169 57.1151 85.273 57.1028V52.8817L85.2748 52.8799Z" fill="#53565A"/>
<path d="M30.0649 52.8168C30.4614 52.8168 30.8105 52.815 31.1579 52.8168C31.6526 52.8221 32.1316 52.9571 32.3176 53.4379C32.5211 53.9659 32.5263 54.5291 31.9877 54.9344C31.9456 54.966 31.9298 55.0309 31.893 55.0923C32.3176 55.7344 32.7456 56.3835 33.2211 57.1011C32.9965 57.1186 32.8193 57.1309 32.6351 57.1449C32.0369 56.5397 31.8316 55.6116 30.9912 55.2589C30.8789 55.2116 30.721 55.2765 30.5088 55.2958V57.073C30.3298 57.1063 30.2245 57.1256 30.1386 57.1414C29.9263 56.959 29.8859 54.1186 30.0649 52.8185V52.8168ZM31.8719 53.9852C31.4719 53.2484 31.4281 53.2308 30.5421 53.415V54.6449C31.4281 54.7677 31.5035 54.7291 31.8719 53.9852Z" fill="#53565A"/>
<path d="M11.1575 57.1274H10.5803C10.3803 56.7134 10.1785 56.2993 9.95746 55.8432H8.14865C7.92759 56.287 7.72408 56.6993 7.5153 57.1169H6.9574C7.59601 55.6291 8.20655 54.2116 8.85042 52.7133C9.08025 52.8694 9.27674 52.9291 9.33289 53.0519C9.93992 54.373 10.5241 55.7046 11.1575 57.1292V57.1274ZM9.00481 53.7098C8.75919 54.3133 8.58375 54.7467 8.38374 55.2397C8.85393 55.2975 9.23288 55.3695 9.65044 55.1432C9.44692 54.6905 9.26271 54.2817 9.00656 53.708L9.00481 53.7098Z" fill="#53565A"/>
<path d="M25.3139 56.6871V57.1081H22.8016C22.8016 56.3853 22.8016 55.6923 22.8016 55.0011C22.8016 54.3098 22.8016 53.6116 22.8016 52.8712H25.1894V53.2747H23.5016V54.7186H25.156V55.2081H23.5823C23.3525 55.6835 23.4455 56.1081 23.4876 56.6379C24.0964 56.6555 24.6911 56.6713 25.3157 56.6888L25.3139 56.6871Z" fill="#53565A"/>
<path d="M78.5729 52.708C79.3431 54.1572 79.8694 55.6344 80.5905 57.0976C80.401 57.1151 80.2501 57.1309 80.0466 57.1502C79.8203 56.7099 79.5975 56.2748 79.3659 55.8239H77.6764C77.136 56.1625 77.4167 57.1187 76.55 57.1415C76.5799 56.645 77.7185 53.7607 78.1729 53.0344C78.2396 52.9291 78.3747 52.8659 78.5711 52.7098L78.5729 52.708ZM77.7992 55.2414H79.1413C78.9045 54.7291 78.708 54.301 78.4396 53.7186C78.1957 54.2993 78.0185 54.7204 77.7992 55.2414Z" fill="#53565A"/>
<path d="M47.1179 53.1151V53.5502C47.0319 53.573 46.974 53.6063 46.9284 53.5958C46.5354 53.5028 46.1477 53.3291 45.7529 53.3186C45.0775 53.2993 44.488 53.5537 44.1722 54.2063C43.8705 54.8291 43.8669 55.4572 44.3231 56.0134C44.7898 56.5835 45.4196 56.7643 46.1301 56.6309C46.3845 56.5835 46.6249 56.4642 46.8758 56.3853C46.9793 56.3537 47.0881 56.3414 47.2688 56.3046C47.2495 56.5221 47.2354 56.6818 47.2232 56.8239C46.5459 57.2274 45.8389 57.2169 45.1477 57.1344C44.1687 57.0169 43.3775 56.0344 43.3757 55.0537C43.374 53.7203 44.2266 53.0098 45.188 52.8308C45.8144 52.7133 46.4687 52.7361 47.1161 53.1151H47.1179Z" fill="#53565A"/>
<path d="M1.22044 55.2695V57.0414C1.04851 57.0835 0.920434 57.1151 0.729202 57.1607V52.894C1.28185 52.7291 1.86607 52.7835 2.43099 52.8519C2.99416 52.9203 3.41522 53.5028 3.39592 54.0466C3.37487 54.6098 2.95381 55.1098 2.37485 55.1993C2.03274 55.2537 1.68185 55.2432 1.22219 55.2677L1.22044 55.2695ZM1.25202 53.3379V54.7116C1.59764 54.7116 1.91344 54.7572 2.20818 54.6993C2.53977 54.6344 2.76082 54.3975 2.77661 54.0291C2.78889 53.7186 2.58012 53.4133 2.22748 53.3501C1.92923 53.2957 1.61343 53.3396 1.25377 53.3396L1.25202 53.3379Z" fill="#53565A"/>
<path d="M16.1208 55.2537V57.066C15.9488 57.0941 15.8225 57.1151 15.6383 57.1432V52.9291C17.305 52.5624 17.9261 52.8098 18.3068 53.987C18.1752 55.3063 17.1594 55.2397 16.1225 55.2519L16.1208 55.2537ZM16.2348 53.3151C16.026 53.7905 16.0681 54.2256 16.1927 54.694C16.3594 54.7133 16.498 54.7379 16.6366 54.7449C16.7506 54.7519 16.8681 54.7502 16.9822 54.7326C17.4155 54.6677 17.6997 54.3677 17.6875 53.9975C17.6769 53.6624 17.4085 53.3677 17.0208 53.3203C16.7681 53.2887 16.5067 53.3151 16.2348 53.3151Z" fill="#53565A"/>
<path d="M70.385 57.1239H70.0833C69.9096 56.5362 69.8745 53.9677 70.0359 52.8221C70.5324 52.8221 71.05 52.787 71.5605 52.8308C72.1886 52.8852 72.5412 53.3028 72.5746 53.9309C72.6114 54.6168 72.3675 54.9993 71.7272 55.1519C71.3658 55.2379 70.985 55.2414 70.5798 55.287C70.3043 55.8502 70.5921 56.4818 70.385 57.1239ZM70.5061 54.7274C70.8289 54.7274 71.0868 54.7572 71.3324 54.7204C71.7254 54.6625 72.0044 54.3624 72.0166 54.0484C72.0289 53.7326 71.7623 53.4028 71.3763 53.3379C71.1061 53.2923 70.8219 53.3291 70.5043 53.3291V54.7274H70.5061Z" fill="#53565A"/>
<path d="M93.5522 52.8414C94.6452 52.6957 94.7399 53.7817 95.4119 54.1975C96.0505 53.8572 96.1803 52.7501 97.2926 52.8186C96.7312 53.5502 96.2277 54.2063 95.7031 54.887V57.1064C95.5031 57.1169 95.3452 57.1257 95.1312 57.1362V54.88C94.6434 54.2502 94.1276 53.587 93.5504 52.8431L93.5522 52.8414Z" fill="#53565A"/>
</svg>
