<svg width="24" height="24" viewBox="0 0 24 24" fill="none" xmlns="http://www.w3.org/2000/svg">
<path d="M10.0594 10.0905C12.8458 10.0905 15.1046 7.83164 15.1046 5.04523C15.1046 2.25883 12.8458 0 10.0594 0C7.27296 0 5.01413 2.25883 5.01413 5.04523C5.01413 7.83164 7.27296 10.0905 10.0594 10.0905Z" fill="#53565A"/>
<path d="M13.2927 19.314H18.7596V20.4074H13.2927V19.314Z" fill="#53565A"/>
<path d="M8.60671 20.876V23.219C8.60671 23.4261 8.68899 23.6248 8.83546 23.7712C8.98192 23.9177 9.18057 24 9.3877 24H22.6646C22.8718 24 23.0704 23.9177 23.2169 23.7712C23.3633 23.6248 23.4456 23.4261 23.4456 23.219V15.409C23.4456 15.2019 23.3633 15.0033 23.2169 14.8568C23.0704 14.7103 22.8718 14.628 22.6646 14.628H17.1977V13.48C17.1977 13.2728 17.1154 13.0742 16.9689 12.9277C16.8225 12.7813 16.6238 12.699 16.4167 12.699C16.2095 12.699 16.0109 12.7813 15.8644 12.9277C15.718 13.0742 15.6357 13.2728 15.6357 13.48V14.628H14.0737V11.8321C12.7465 11.6153 11.4041 11.5056 10.0594 11.5041C7.09376 11.4914 4.1614 12.1286 1.46841 13.3706C1.02518 13.5798 0.651257 13.9117 0.391005 14.327C0.130754 14.7423 -0.00490145 15.2235 0.00013533 15.7136V20.876H8.60671ZM21.8836 22.438H10.1687V16.19H15.6357V16.5181C15.6357 16.7252 15.718 16.9238 15.8644 17.0703C16.0109 17.2168 16.2095 17.299 16.4167 17.299C16.6238 17.299 16.8225 17.2168 16.9689 17.0703C17.1154 16.9238 17.1977 16.7252 17.1977 16.5181V16.19H21.8836V22.438Z" fill="#53565A"/>
</svg>
