<svg width="33" height="38" viewBox="0 0 33 38" fill="none" xmlns="http://www.w3.org/2000/svg">
<path d="M28.5714 17.4822C27.6786 17.7143 26.7857 17.8572 25.8929 17.8572C23.2895 17.8524 20.7941 16.8162 18.9533 14.9753C17.1124 13.1345 16.0762 10.6391 16.0714 8.03572C16.0714 5.41072 17.1071 3.03572 18.75 1.26787C18.4259 0.870618 18.0173 0.55067 17.5539 0.331338C17.0906 0.112006 16.5841 -0.00118662 16.0714 9.3798e-06C14.1071 9.3798e-06 12.5 1.60715 12.5 3.57144V4.0893C7.19643 5.66072 3.57143 10.5357 3.57143 16.0714V26.7857L0 30.3572V32.1429H32.1429V30.3572L28.5714 26.7857V17.4822ZM16.0714 37.5C18.0536 37.5 19.6429 35.9107 19.6429 33.9286H12.5C12.5 34.8758 12.8763 35.7842 13.5461 36.454C14.2158 37.1237 15.1242 37.5 16.0714 37.5Z" fill="#53565A"/>
<path d="M25.8928 14.2857C29.3393 14.2857 32.1428 11.4822 32.1428 8.03572C32.1428 4.58929 29.3393 1.78572 25.8928 1.78572C22.4464 1.78572 19.6428 4.58929 19.6428 8.03572C19.6428 11.4822 22.4464 14.2857 25.8928 14.2857Z" fill="#FF3A29"/>
</svg>
