<svg width="25" height="24" viewBox="0 0 25 24" fill="none" xmlns="http://www.w3.org/2000/svg">
<path d="M13.3613 0C13.1251 0 12.9331 0.191974 12.9331 0.428548C12.9331 0.450525 12.9425 0.469593 12.9457 0.490924H12.9331V10.6513C12.9331 10.8879 13.1251 11.0799 13.3613 11.0799H23.5214V11.0673C23.5427 11.0705 23.5618 11.0799 23.5841 11.0799C23.8204 11.0799 24.0123 10.8879 24.0123 10.6513C23.9516 4.79515 19.2175 0.0610827 13.3613 0Z" fill="#53565A"/>
<path d="M21.5354 13.1182C21.5354 12.8817 21.3437 12.6897 21.1071 12.6897H11.7673C11.6537 12.6896 11.5448 12.6444 11.4645 12.564C11.3842 12.4837 11.3391 12.3747 11.3391 12.2611V2.95555H11.3265C11.3297 2.93422 11.3391 2.91516 11.3391 2.89318C11.3391 2.65628 11.1471 2.46463 10.9105 2.46463C10.9002 2.46463 10.8918 2.4698 10.8818 2.47045V2.46754C10.8436 2.46722 10.8058 2.46463 10.7677 2.46463C4.82101 2.46463 0 7.28564 0 13.2323C0 19.179 4.82101 24 10.7677 24C16.7144 24 21.5354 19.179 21.5354 13.2323C21.5354 13.1981 21.5337 13.1641 21.5331 13.1295C21.5331 13.1253 21.5354 13.1221 21.5354 13.1182Z" fill="#53565A"/>
</svg>
