<svg width="24" height="24" viewBox="0 0 24 24" fill="none" xmlns="http://www.w3.org/2000/svg">
<path d="M17.3333 0C17.687 0 18.0261 0.140476 18.2761 0.390524C18.5262 0.640573 18.6667 0.979711 18.6667 1.33333V2.66667H21.3333C22.0061 2.66645 22.6541 2.92054 23.1474 3.378C23.6407 3.83545 23.9429 4.46246 23.9933 5.13333L24 5.33333V21.3333C24.0002 22.0061 23.7461 22.6541 23.2887 23.1474C22.8312 23.6407 22.2042 23.9429 21.5333 23.9933L21.3333 24H2.66667C1.9939 24.0002 1.34591 23.7461 0.852603 23.2887C0.359294 22.8312 0.0571246 22.2042 0.00666695 21.5333L1.33691e-07 21.3333V5.33333C-0.000212772 4.66056 0.253875 4.01258 0.711329 3.51927C1.16878 3.02596 1.79579 2.72379 2.46667 2.67333L2.66667 2.66667H5.33333V1.33333C5.33333 0.979711 5.47381 0.640573 5.72386 0.390524C5.97391 0.140476 6.31304 0 6.66667 0C7.02029 0 7.35943 0.140476 7.60948 0.390524C7.85952 0.640573 8 0.979711 8 1.33333V2.66667H16V1.33333C16 0.979711 16.1405 0.640573 16.3905 0.390524C16.6406 0.140476 16.9797 0 17.3333 0ZM15.7653 8.50533L10.1093 14.1613L8.22267 12.276C7.9712 12.0331 7.63439 11.8987 7.2848 11.9018C6.9352 11.9048 6.60079 12.045 6.35358 12.2922C6.10636 12.5395 5.96614 12.8739 5.9631 13.2235C5.96006 13.5731 6.09446 13.9099 6.33733 14.1613L9.156 16.9813C9.28107 17.1065 9.42958 17.2058 9.59304 17.2736C9.7565 17.3413 9.93172 17.3762 10.1087 17.3762C10.2856 17.3762 10.4608 17.3413 10.6243 17.2736C10.7878 17.2058 10.9363 17.1065 11.0613 16.9813L17.6507 10.3907C17.778 10.2677 17.8796 10.1205 17.9495 9.95787C18.0193 9.7952 18.0561 9.62024 18.0577 9.4432C18.0592 9.26616 18.0255 9.09059 17.9584 8.92673C17.8914 8.76287 17.7924 8.614 17.6672 8.48881C17.542 8.36362 17.3931 8.26461 17.2293 8.19757C17.0654 8.13053 16.8898 8.09679 16.7128 8.09833C16.5358 8.09987 16.3608 8.13665 16.1981 8.20653C16.0355 8.27641 15.8883 8.37799 15.7653 8.50533Z" fill="#53565A"/>
</svg>
